<?xml version="1.0" standalone="no"?>
<!DOCTYPE svg PUBLIC "-//W3C//DTD SVG 20010904//EN"
 "http://www.w3.org/TR/2001/REC-SVG-20010904/DTD/svg10.dtd">
<svg version="1.0" xmlns="http://www.w3.org/2000/svg"
 width="512.000000pt" height="512.000000pt" viewBox="0 0 512.000000 512.000000"
 preserveAspectRatio="xMidYMid meet">

<g transform="translate(0.000000,512.000000) scale(0.100000,-0.100000)"
fill="#D63232" stroke="none">
<path d="M2247 5086 c-292 -120 -546 -449 -723 -933 l-34 -93 425 0 425 0 0
525 c0 597 10 543 -93 501z"/>
<path d="M2560 4586 l0 -526 425 0 c234 0 425 2 425 5 0 2 -20 57 -46 122
-132 344 -312 621 -501 773 -78 63 -210 134 -270 146 l-33 7 0 -527z"/>
<path d="M1645 4986 c-479 -169 -875 -465 -1190 -888 l-27 -38 416 0 c324 0
418 3 421 13 131 384 281 671 459 880 37 42 61 77 54 76 -7 0 -67 -19 -133
-43z"/>
<path d="M3179 4950 c93 -108 178 -239 261 -401 78 -153 95 -194 155 -364 l43
-120 416 -3 417 -2 -32 46 c-92 134 -319 371 -464 486 -155 122 -344 236 -522
316 -87 39 -314 122 -334 122 -5 0 22 -36 60 -80z"/>
<path d="M282 3818 c-38 -63 -115 -244 -157 -373 -63 -189 -94 -349 -120 -607
l-5 -58 533 0 534 0 6 158 c11 255 47 534 102 788 14 64 25 117 25 120 0 2
-202 4 -449 4 l-449 0 -20 -32z"/>
<path d="M1421 3827 c-12 -32 -67 -294 -85 -407 -20 -126 -43 -355 -52 -512
l-7 -128 532 0 531 0 0 535 0 535 -455 0 -455 0 -9 -23z"/>
<path d="M2560 3315 l0 -535 531 0 532 0 -7 133 c-15 282 -58 598 -114 822
l-27 110 -457 3 -458 2 0 -535z"/>
<path d="M3704 3828 c59 -217 126 -723 126 -955 l0 -93 536 0 535 0 -6 73
c-20 223 -62 428 -126 614 -42 121 -117 298 -149 351 l-20 32 -451 0 -451 0 6
-22z"/>
<path d="M6 2562 c-7 -11 11 -198 30 -307 38 -226 104 -433 206 -647 l51 -108
455 0 454 0 -6 23 c-58 212 -117 663 -129 982 l-2 60 -527 3 c-290 1 -529 -2
-532 -6z"/>
<path d="M1280 2523 c0 -217 50 -609 112 -885 l31 -138 459 0 458 0 0 535 0
535 -530 0 -530 0 0 -47z"/>
<path d="M2560 2035 c0 -507 1 -535 18 -535 14 0 24 21 46 95 124 412 472 763
890 900 82 27 102 37 104 54 l3 21 -530 0 -531 0 0 -535z"/>
<path d="M4179 2545 c191 -36 345 -96 515 -199 74 -44 114 -47 157 -8 26 23
32 37 39 97 5 39 9 85 10 103 l0 32 -422 -1 -423 -1 124 -23z"/>
<path d="M3742 2335 c-582 -106 -996 -623 -968 -1210 23 -483 329 -892 790
-1054 305 -108 676 -73 960 89 513 294 730 929 501 1471 -156 370 -488 635
-883 704 -105 18 -299 18 -400 0z m243 -419 c65 -28 65 -24 65 -532 l0 -456
-34 -34 c-38 -38 -77 -44 -125 -20 -50 27 -51 33 -51 524 0 505 -2 489 64 518
39 17 40 17 81 0z m30 -1300 c50 -50 43 -125 -15 -164 -102 -69 -218 72 -131
159 39 39 109 41 146 5z"/>
<path d="M440 1270 c26 -49 183 -235 279 -330 282 -280 627 -489 999 -606 l73
-23 -18 23 c-10 13 -42 52 -72 87 -150 176 -297 451 -402 754 l-39 110 -415 3
c-412 2 -416 2 -405 -18z"/>
<path d="M1495 1268 c22 -73 105 -269 156 -370 178 -350 406 -583 637 -651
l52 -16 0 530 0 529 -426 0 -425 0 6 -22z"/>
<path d="M2561 632 l-1 -403 23 7 c112 34 227 96 227 121 0 9 -20 50 -44 92
-100 170 -161 332 -190 506 -13 74 -14 50 -15 -323z"/>
</g>
</svg>
