<?xml version="1.0" encoding="utf-8"?>
<!-- Generator: Adobe Illustrator 22.1.0, SVG Export Plug-In . SVG Version: 6.00 Build 0)  -->
<svg version="1.1" id="Capa_1" xmlns="http://www.w3.org/2000/svg" xmlns:xlink="http://www.w3.org/1999/xlink" x="0px" y="0px"
	 viewBox="0 0 215 172" style="enable-background:new 0 0 215 172;" xml:space="preserve">
<style type="text/css">
	.st0{fill:#DEFB48;}
	.st1{fill:#211915;}
</style>
<rect class="st0" width="215" height="172"/>
<g id="XMLID_1_">
	<g>
		<polygon class="st0" points="189,88.4 189,99.5 164.1,99.5 151.7,86.9 151.7,62.5 164.9,48.9 188.6,49 189.3,49.7 189.3,60.6 
			188.7,61.2 170,61.2 163.3,67.9 163.4,81.8 169.4,87.9 188.6,87.9 		"/>
		<polygon class="st1" points="190.1,49.4 190.1,61 167.4,84.4 169.8,87 188.9,87 189.6,88 189,88.4 188.6,87.9 169.4,87.9 
			163.4,81.8 163.3,67.9 170,61.2 188.7,61.2 189.3,60.6 189.3,49.7 189.9,49.1 		"/>
		<polygon class="st0" points="140.3,48.8 140.2,60.5 103.3,60.5 103.3,48.8 		"/>
		<rect x="102.9" y="68.6" class="st0" width="31" height="10.7"/>
		<rect x="103.3" y="87.9" class="st0" width="21.7" height="11.3"/>
		<polygon class="st0" points="88.1,49.9 88.1,61 82,61 70.4,49.5 87.6,49.5 		"/>
		<path class="st1" d="M88.1,61V49.9l-0.5-0.4H70.4L82,61H88.1z M125,99.3V87.9h-21.7v11.3H125z M140.2,60.5l0.1-11.6h-37v11.6
			H140.2z M189.9,88.4l0.1,12.2l-25.5,26.1l-27-0.1l-10.7-10.8l-10.9,10.7H75.9l-0.1-25.6l-0.6-0.7V62.4l-10.7-11l0.6-0.6l2.9-2.2
			l20.2,0l0.6,0.5V61h0.8l12.9-13l38.3,0l0.5,0.5L141,70.6l0.4,0.8l23.1-23.3l24.4,0.1l0.9,1l-0.6,0.5l-0.7-0.7l-23.7,0l-13.3,13.5
			v24.4l12.4,12.6H189V88.4l0.6-0.4L189.9,88.4z M133.8,79.3V68.6h-31v10.7H133.8z"/>
		<polygon class="st0" points="75.3,62.4 75.3,100.2 63.2,100.2 63.2,61.5 50.7,61.6 50.7,49.5 62.6,49.5 64.5,51.4 		"/>
		<polygon class="st1" points="65.1,50.8 64.5,51.4 62.6,49.5 50.7,49.5 50.7,61.6 63.2,61.5 63.2,100.2 75.3,100.2 75.9,100.9 
			49.8,126.5 36.2,126.5 36,88.2 23.3,88 23.3,74.5 49.5,48.5 62.9,48.5 		"/>
	</g>
	<g>
	</g>
</g>
</svg>
